<?xml version="1.0" encoding="utf-8"?>
<!-- Generator: Adobe Illustrator 17.0.2, SVG Export Plug-In . SVG Version: 6.00 Build 0)  -->
<!DOCTYPE svg PUBLIC "-//W3C//DTD SVG 1.1//EN" "http://www.w3.org/Graphics/SVG/1.1/DTD/svg11.dtd">
<svg version="1.1" id="Calque_1" xmlns="http://www.w3.org/2000/svg" xmlns:xlink="http://www.w3.org/1999/xlink" x="0px" y="0px"
	 width="600.5px" height="600px" viewBox="0 97.5 600.5 600" enable-background="new 0 97.5 600.5 600" xml:space="preserve">
<g>
	<path fill="#CA2F43" d="M300.272,656.71c-71.834,0-143.669-0.141-215.502,0.089c-20.621,0.066-41.317-16.545-43.591-39.013
		c-0.271-2.675-0.405-5.327-0.405-7.999c-0.006-141.994-0.006-283.987-0.004-425.98c0.001-22.265,13.84-39.727,35.465-44.736
		c2.361-0.547,4.747-0.868,7.194-0.867c144.505,0.019,289.01-0.07,433.515,0.138c16.184,0.023,28.437,8.258,36.742,22.129
		c4.41,7.365,6.047,15.478,6.046,24.002c-0.013,142.161-0.009,284.321-0.01,426.482c0,20.159-10.926,36.171-29.707,43.398
		c-4.316,1.661-8.827,2.38-13.49,2.378C444.442,656.701,372.356,656.71,300.272,656.71z M411.915,438.385c0.019,0,0.038,0,0.057,0
		c0-11.971-0.053-23.942,0.051-35.912c0.018-2.048-0.611-2.482-2.534-2.462c-9.124,0.095-18.25,0.123-27.372-0.015
		c-2.226-0.034-2.77,0.538-2.76,2.759c0.084,17.914-0.023,35.828,0.075,53.742c0.012,2.1-0.715,2.87-2.538,3.473
		c-9.698,3.21-19.605,4.133-29.71,2.833c-16.624-2.14-29.902-9.909-38.938-24.139c-9.287-14.625-11.614-30.812-9.314-47.729
		c4.641-34.135,34.326-56.172,68.236-51.014c10.173,1.547,19.904,4.331,29.149,8.791c1.804,0.871,2.513,0.487,3.327-1.256
		c2.83-6.054,5.841-12.023,8.78-18.027c1.53-3.125,1.561-3.2-1.6-4.656c-22.74-10.471-46.512-13.459-71.003-8.621
		c-46.905,9.266-77.294,54.25-68.863,101.263c7.533,42.006,41.547,68.425,81.835,70.953c21.391,1.342,41.645-3.738,61.453-11.215
		c1.527-0.576,1.69-1.495,1.686-2.856C411.901,462.326,411.915,450.355,411.915,438.385z M108.204,401.862
		c0.105,5.023,0.402,10.534,1.396,15.981c5.036,27.583,19.525,48.392,44.603,61.295c17.122,8.809,35.484,11.005,54.418,8.569
		c13.782-1.773,26.584-6.423,38.249-14.091c1.436-0.944,1.651-1.644,0.758-3.135c-3.52-5.881-6.949-11.817-10.317-17.786
		c-0.724-1.284-1.255-1.645-2.642-0.815c-12.579,7.529-26.349,10.203-40.847,10.018c-12.823-0.163-23.823-4.752-33.094-13.469
		c-18.828-17.702-25.204-47.661-15.601-72.775c8.675-22.689,27.876-35.764,52.06-34.86c13.415,0.501,25.722,4.856,36.537,12.966
		c1.429,1.072,1.912,0.831,2.749-0.532c3.719-6.055,7.477-12.089,11.36-18.039c0.973-1.49,0.791-2.253-0.607-3.164
		c-1.679-1.093-3.201-2.427-4.872-3.533c-19.649-12.995-41.22-16.904-64.245-13.123c-21.822,3.583-39.757,13.946-52.982,31.855
		C113.269,363.28,108.518,381.645,108.204,401.862z M449.551,401.293c0.014,0,0.028,0,0.042,0c0,27.114,0.022,54.228-0.044,81.342
		c-0.005,2.024,0.422,2.712,2.586,2.679c8.618-0.132,17.239-0.098,25.858-0.019c1.841,0.017,2.612-0.297,2.609-2.427
		c-0.08-54.396-0.092-108.791-0.068-163.186c0.001-1.725-0.424-2.284-2.215-2.265c-8.703,0.089-17.408,0.134-26.108-0.022
		c-2.308-0.041-2.714,0.679-2.708,2.807C449.575,347.232,449.551,374.262,449.551,401.293z M446.559,279.112
		c0.03,10.059,8.124,18.215,18.137,18.273c10.079,0.059,18.314-8.202,18.303-18.362c-0.011-10.194-8.165-18.269-18.39-18.212
		C454.56,260.867,446.53,269.009,446.559,279.112z"/>
	<path fill="#FEFDFD" d="M411.915,438.385c0,11.971-0.014,23.941,0.019,35.912c0.004,1.361-0.16,2.28-1.686,2.856
		c-19.809,7.476-40.062,12.557-61.453,11.215c-40.288-2.528-74.302-28.947-81.835-70.953
		c-8.431-47.013,21.957-91.997,68.863-101.263c24.49-4.838,48.262-1.849,71.003,8.621c3.161,1.455,3.13,1.531,1.6,4.656
		c-2.939,6.003-5.95,11.973-8.78,18.027c-0.815,1.743-1.523,2.126-3.327,1.256c-9.245-4.46-18.976-7.244-29.149-8.791
		c-33.911-5.158-63.596,16.879-68.236,51.014c-2.3,16.917,0.027,33.104,9.314,47.729c9.036,14.23,22.313,22,38.938,24.139
		c10.105,1.301,20.012,0.378,29.71-2.833c1.823-0.603,2.549-1.374,2.538-3.473c-0.098-17.914,0.009-35.828-0.075-53.742
		c-0.011-2.222,0.534-2.793,2.76-2.759c9.123,0.138,18.249,0.111,27.372,0.015c1.922-0.02,2.552,0.415,2.534,2.462
		c-0.104,11.97-0.051,23.941-0.051,35.912C411.952,438.385,411.934,438.385,411.915,438.385z"/>
	<path fill="#FEFDFD" d="M108.204,401.862c0.315-20.217,5.066-38.582,16.923-54.639c13.225-17.909,31.16-28.272,52.982-31.855
		c23.026-3.78,44.596,0.129,64.245,13.123c1.672,1.106,3.194,2.44,4.872,3.533c1.398,0.91,1.579,1.673,0.607,3.164
		c-3.884,5.95-7.642,11.984-11.36,18.039c-0.837,1.363-1.32,1.604-2.749,0.532c-10.815-8.109-23.122-12.465-36.537-12.966
		c-24.184-0.903-43.385,12.171-52.06,34.86c-9.603,25.115-3.227,55.074,15.601,72.776c9.271,8.717,20.271,13.306,33.094,13.469
		c14.499,0.184,28.269-2.489,40.847-10.018c1.387-0.83,1.917-0.469,2.642,0.815c3.368,5.969,6.797,11.905,10.317,17.786
		c0.893,1.492,0.678,2.191-0.758,3.135c-11.665,7.669-24.468,12.319-38.249,14.091c-18.933,2.436-37.296,0.24-54.418-8.569
		c-25.078-12.903-39.568-33.712-44.603-61.295C108.606,412.395,108.309,406.884,108.204,401.862z"/>
	<path fill="#FEFDFD" d="M449.551,401.293c0-27.03,0.025-54.061-0.047-81.091c-0.006-2.128,0.4-2.848,2.708-2.807
		c8.701,0.156,17.406,0.112,26.108,0.022c1.79-0.019,2.216,0.541,2.215,2.265c-0.025,54.396-0.013,108.791,0.068,163.186
		c0.003,2.13-0.768,2.443-2.609,2.427c-8.619-0.079-17.24-0.113-25.858,0.019c-2.165,0.033-2.591-0.656-2.586-2.679
		c0.065-27.114,0.044-54.228,0.044-81.342C449.578,401.293,449.565,401.293,449.551,401.293z"/>
	<path fill="#FEFCFD" d="M446.559,279.112c-0.03-10.102,8.001-18.245,18.05-18.301c10.225-0.057,18.379,8.018,18.39,18.212
		c0.011,10.161-8.223,18.422-18.303,18.362C454.684,297.326,446.589,289.171,446.559,279.112z"/>
</g>
</svg>
